<svg width="141" height="21" viewBox="0 0 141 21" fill="none" xmlns="http://www.w3.org/2000/svg">
<path d="M16.436 0.259999V4.628H11.172V20H5.684V4.628H0.476V0.259999H16.436ZM23.9544 4.656V7.876H30.2544V12.048H23.9544V15.604H31.0944V20H18.4664V0.259999H31.0944V4.656H23.9544ZM33.1343 10.088C33.1343 8.14667 33.5356 6.42 34.3383 4.908C35.1596 3.37733 36.3169 2.192 37.8103 1.352C39.3036 0.493333 41.0209 0.0639997 42.9623 0.0639997C45.4263 0.0639997 47.4983 0.726666 49.1783 2.052C50.8583 3.35867 51.9409 5.14133 52.4263 7.4H46.5183C46.1636 6.65333 45.6689 6.084 45.0343 5.692C44.4183 5.3 43.6996 5.104 42.8783 5.104C41.6089 5.104 40.5916 5.56133 39.8263 6.476C39.0796 7.372 38.7063 8.576 38.7063 10.088C38.7063 11.6187 39.0796 12.8413 39.8263 13.756C40.5916 14.652 41.6089 15.1 42.8783 15.1C43.6996 15.1 44.4183 14.904 45.0343 14.512C45.6689 14.12 46.1636 13.5507 46.5183 12.804H52.4263C51.9409 15.0627 50.8583 16.8547 49.1783 18.18C47.4983 19.4867 45.4263 20.14 42.9623 20.14C41.0209 20.14 39.3036 19.72 37.8103 18.88C36.3169 18.0213 35.1596 16.836 34.3383 15.324C33.5356 13.7933 33.1343 12.048 33.1343 10.088ZM72.693 0.259999V20H67.205V12.076H60.513V20H55.025V0.259999H60.513V7.68H67.205V0.259999H72.693ZM94.1176 20H88.6296L81.3216 8.968V20H75.8336V0.259999H81.3216L88.6296 11.432V0.259999H94.1176V20ZM102.732 4.656V7.876H109.032V12.048H102.732V15.604H109.872V20H97.2438V0.259999H109.872V4.656H102.732ZM140.388 0.259999L135.544 20H128.796L126.08 7.904L123.308 20H116.56L111.772 0.259999H117.708L120.004 13.756L123.112 0.259999H129.132L132.156 13.644L134.452 0.259999H140.388Z" fill="white"/>
</svg>
